<svg width="75" height="40" viewBox="0 0 75 40" fill="none" xmlns="http://www.w3.org/2000/svg">
<path d="M0 30C0 13.4315 13.4315 0 30 0H75V10C75 26.5685 61.5685 40 45 40H0V30Z" fill="#0AAFEE"/>
<path d="M7.5 20.0356C7.5 12.2189 13.8544 5.88232 21.671 5.88232C29.468 5.88232 35.8065 12.203 35.8065 20C35.8065 27.7969 29.4858 34.1176 21.6888 34.1176H7.5V20.0356Z" fill="#FF0100"/>
<path d="M67.5 19.9644C67.5 27.7811 61.1456 34.1177 53.329 34.1177C45.532 34.1177 39.1935 27.797 39.1935 20C39.1935 12.2031 45.5142 5.88238 53.3112 5.88238H67.5V19.9644Z" fill="#99FF02"/>
<path d="M17.3142 24.1328L13.2146 28.1797L13.2126 28.1816C13.1981 28.196 13.1768 28.206 13.1482 28.2061C13.1193 28.2061 13.0974 28.1961 13.0828 28.1816C13.0541 28.1532 13.0543 28.1048 13.0828 28.0762L17.1785 24.0146H17.3142V24.1328ZM22.5818 12.7637C26.1568 12.5357 29.0659 15.5645 28.6248 19.124V19.125C28.3284 21.5459 26.3788 23.5743 23.9402 23.9834C22.1497 24.2805 20.4726 23.7403 19.241 22.6934L18.9109 22.4111L18.6267 22.084C17.5722 20.8636 17.0307 19.2059 17.3289 17.4385V17.4395C17.739 15.0334 19.7778 13.0927 22.2322 12.7969H22.2341L22.5818 12.7637ZM28.6042 18.4072C28.6042 15.2981 26.0744 12.8 22.9597 12.7998C19.8449 12.7998 17.3143 15.298 17.3142 18.4072C17.3142 21.5165 19.8449 24.0146 22.9597 24.0146C26.0744 24.0145 28.6042 21.5164 28.6042 18.4072Z" fill="black" stroke="#0AAFEE" stroke-width="2"/>
<path d="M59.5301 14.9572L63.6297 10.9103L63.6317 10.9083C63.6462 10.894 63.6675 10.884 63.6961 10.8839C63.725 10.8839 63.7469 10.8938 63.7615 10.9083C63.7902 10.9368 63.79 10.9852 63.7615 11.0138L59.6658 15.0753H59.5301V14.9572ZM54.2625 26.3263C50.6875 26.5543 47.7784 23.5255 48.2195 19.9659V19.965C48.5159 17.544 50.4655 15.5157 52.9041 15.1066C54.6946 14.8095 56.3717 15.3497 57.6033 16.3966L57.9334 16.6788L58.2176 17.006C59.2721 18.2264 59.8136 19.8841 59.5154 21.6515V21.6505C59.1053 24.0566 57.0665 25.9973 54.6121 26.2931H54.6102L54.2625 26.3263ZM48.2401 20.6827C48.2401 23.7919 50.7699 26.29 53.8846 26.2902C56.9994 26.2902 59.53 23.792 59.5301 20.6827C59.5301 17.5734 56.9994 15.0753 53.8846 15.0753C50.7699 15.0755 48.2401 17.5735 48.2401 20.6827Z" fill="black" stroke="#0AAFEE" stroke-width="2"/>
</svg>
